<svg width="110" height="31" viewBox="0 0 110 31" fill="none" xmlns="http://www.w3.org/2000/svg">
<g style="mix-blend-mode:luminosity" opacity="0.5">
<path d="M18.1807 20.6758C23.016 20.6758 26.9358 16.8136 26.9358 12.0493C26.9358 11.5093 26.8854 10.9809 26.7891 10.4685C26.269 10.3736 25.7328 10.324 25.1847 10.324C20.3495 10.324 16.4297 14.1862 16.4297 18.9505C16.4297 19.4904 16.48 20.0188 16.5763 20.5313C17.0964 20.6261 17.6327 20.6758 18.1807 20.6758Z" fill="#175CD3"/>
<path fill-rule="evenodd" clip-rule="evenodd" d="M16.5766 20.5314C12.5074 19.7888 9.42578 16.2737 9.42578 12.0494C9.42578 7.28512 13.3456 3.42291 18.1809 3.42291C22.4682 3.42291 26.0358 6.45929 26.7893 10.4686C26.2692 10.3737 25.733 10.3241 25.1849 10.3241C20.3496 10.3241 16.4299 14.1863 16.4299 18.9506C16.4299 19.4905 16.4802 20.0189 16.5766 20.5314Z" fill="#1570EF"/>
<path fill-rule="evenodd" clip-rule="evenodd" d="M18.1805 20.6759C23.0158 20.6759 26.9356 16.8137 26.9356 12.0495C26.9356 11.5095 26.8852 10.9811 26.7889 10.4687C30.858 11.2111 33.9397 14.7263 33.9397 18.9507C33.9397 23.7149 30.0199 27.5771 25.1845 27.5771C20.8973 27.5771 17.3297 24.5408 16.5762 20.5314C17.0962 20.6263 17.6325 20.6759 18.1805 20.6759Z" fill="#2E90FA"/>
<path d="M47.062 21.1215C50.0539 21.1215 52.21 19.4581 52.4273 16.9878H49.9201C49.7196 18.1735 48.5663 18.9805 47.062 18.9805C45.1733 18.9805 43.7192 17.696 43.7192 15.2256C43.7192 12.7553 45.1733 11.4543 47.062 11.4543C48.5329 11.4543 49.6861 12.2613 49.8533 13.4635H52.4775C52.1599 10.9767 50.0037 9.32983 47.062 9.32983C43.9364 9.32983 41.1953 11.339 41.1953 15.2256C41.1953 19.1123 43.8863 21.1215 47.062 21.1215Z" fill="black"/>
<path d="M57.0821 12.5576C54.7755 12.5576 53.4049 13.8915 53.3047 15.5549H55.3772C55.4107 14.8632 55.9288 14.2374 56.9484 14.2374C57.9011 14.2374 58.4527 14.715 58.4527 15.4067C58.4527 15.7526 58.2354 16.0161 57.8175 16.0161H56.3969C54.5583 16.0161 53.3214 17.0042 53.3214 18.6345C53.3214 20.0509 54.4413 21.1214 56.0793 21.1214C57.2326 21.1214 58.1686 20.6108 58.4527 19.8368V20.9896H60.7592V15.6537C60.7592 13.7763 59.2049 12.5576 57.0821 12.5576ZM56.6642 19.458C56.0124 19.458 55.5444 19.0792 55.5444 18.5357C55.5444 17.8935 56.0458 17.4653 56.7478 17.4653H58.4527V17.5805C58.4527 18.6345 57.8009 19.458 56.6642 19.458Z" fill="black"/>
<path d="M62.3203 24.3492H64.6436V20.2485C65.0949 20.8084 65.9139 21.1214 66.8666 21.1214C69.2901 21.1214 70.9282 19.425 70.9282 16.8395C70.9282 14.2539 69.4239 12.5576 67.0672 12.5576C65.9807 12.5576 65.145 12.9529 64.6436 13.5951V12.6894H62.3203V24.3492ZM66.5825 19.1451C65.3289 19.1451 64.5099 18.2229 64.5099 16.8395C64.5099 15.4396 65.3289 14.5174 66.5825 14.5174C67.8026 14.5174 68.6383 15.4396 68.6383 16.8395C68.6383 18.2229 67.8026 19.1451 66.5825 19.1451Z" fill="black"/>
<path d="M75.0142 21.1214C76.9864 21.1214 78.2902 20.0838 78.2902 18.5028C78.2902 14.7479 73.677 16.6748 73.677 14.9785C73.677 14.4515 74.1283 14.1716 74.7801 14.1716C75.4153 14.1716 76.0671 14.5503 76.1675 15.2585H78.1899C78.1063 13.628 76.7358 12.5576 74.7134 12.5576C72.9918 12.5576 71.7048 13.5951 71.7048 15.0609C71.7048 18.5522 76.2343 16.8889 76.2343 18.5852C76.2343 19.0463 75.7329 19.3921 75.0142 19.3921C74.145 19.3921 73.56 18.931 73.4765 18.1899H71.4707C71.5543 19.985 72.9583 21.1214 75.0142 21.1214Z" fill="black"/>
<path d="M87.4682 12.6893H85.1284V17.2347C85.1284 18.2887 84.4095 19.0792 83.3896 19.0792C82.4373 19.0792 81.7687 18.3546 81.7687 17.35V12.6893H79.4453V17.8605C79.4453 19.7544 80.682 21.1213 82.5709 21.1213C83.7243 21.1213 84.6601 20.6273 85.1284 19.8368V20.9896H87.4682V12.6893Z" fill="black"/>
<path d="M89.1387 20.9896H91.462V9.0827H89.1387V20.9896Z" fill="black"/>
<path d="M98.7665 18.1734C98.5826 18.8816 97.9643 19.2439 97.0285 19.2439C95.8578 19.2439 95.1059 18.5193 94.9385 17.35H100.989C101.006 17.1689 101.023 16.9218 101.023 16.6089C101.023 14.715 99.8359 12.5576 96.8611 12.5576C94.0027 12.5576 92.6992 14.715 92.6992 16.823C92.6992 18.9146 94.1701 21.1214 97.0285 21.1214C99.1004 21.1214 100.706 19.9686 101.04 18.1734H98.7665ZM96.8611 14.2374C97.9808 14.2374 98.6329 14.9785 98.6997 15.9007H94.9723C95.1726 14.7479 95.8083 14.2374 96.8611 14.2374Z" fill="black"/>
</g>
</svg>
