<svg width="110" height="31" viewBox="0 0 110 31" fill="none" xmlns="http://www.w3.org/2000/svg">
<g style="mix-blend-mode:luminosity" opacity="0.5">
<path d="M20.7439 15.5007C18.8149 17.6808 16.0116 19.0528 12.8915 19.0528C9.77138 19.0528 6.96809 17.6808 5.03906 15.5007C6.96809 13.3206 9.77138 11.9486 12.8915 11.9486C16.0116 11.9486 18.8149 13.3206 20.7439 15.5007Z" fill="white"/>
<path fill-rule="evenodd" clip-rule="evenodd" d="M2.35742 22.6049C2.35742 16.7196 7.07408 11.9486 12.8924 11.9486C9.77229 11.9486 6.96899 13.3206 5.03997 15.5007C6.96899 17.6808 9.77229 19.0528 12.8924 19.0528C16.0125 19.0528 18.8158 17.6808 20.7448 15.5007C22.4129 17.386 23.4273 19.8756 23.4273 22.6049V26.6305C23.4273 27.1537 23.008 27.5778 22.4909 27.5778H3.29386C2.77668 27.5778 2.35742 27.1537 2.35742 26.6305V22.6049Z" fill="#7CD4FD"/>
<path fill-rule="evenodd" clip-rule="evenodd" d="M8.94084 18.2779C7.43659 17.6617 6.10502 16.7044 5.03997 15.5007C6.96899 13.3207 9.77229 11.9487 12.8924 11.9487C16.0125 11.9487 18.8158 13.3207 20.7448 15.5007C22.4129 13.6155 23.4273 11.1259 23.4273 8.39663V4.3709C23.4273 3.84776 23.008 3.42368 22.4909 3.42368H3.29386C2.77668 3.42368 2.35742 3.84776 2.35742 4.3709V8.39663C2.35742 12.8684 5.0805 16.6968 8.94084 18.2779Z" fill="#0BA5EC"/>
<path d="M39.8823 10.2623V20.9911H37.7549V16.426H33.2114V20.9911H31.084V10.2623H33.2114V14.6737H37.7549V10.2623H39.8823Z" fill="black"/>
<path d="M45.7153 21.129C44.9049 21.129 44.1754 20.9498 43.5271 20.5911C42.8788 20.2222 42.3672 19.7047 41.9923 19.0386C41.6276 18.3726 41.4453 17.604 41.4453 16.733C41.4453 15.862 41.6327 15.0935 42.0075 14.4274C42.3925 13.7613 42.9142 13.249 43.5727 12.8903C44.2312 12.5214 44.9656 12.3369 45.7761 12.3369C46.5866 12.3369 47.321 12.5214 47.9795 12.8903C48.638 13.249 49.1547 13.7613 49.5294 14.4274C49.9144 15.0935 50.1069 15.862 50.1069 16.733C50.1069 17.604 49.9093 18.3726 49.5143 19.0386C49.1293 19.7047 48.6025 20.2222 47.9339 20.5911C47.2754 20.9498 46.5359 21.129 45.7153 21.129ZM45.7153 19.2538C46.1003 19.2538 46.4599 19.1616 46.7942 18.9771C47.1387 18.7825 47.4122 18.4955 47.6148 18.1164C47.8174 17.7372 47.9187 17.2761 47.9187 16.733C47.9187 15.9235 47.706 15.3035 47.2805 14.8731C46.8652 14.4325 46.3535 14.2121 45.7457 14.2121C45.1379 14.2121 44.6263 14.4325 44.2109 14.8731C43.8057 15.3035 43.6031 15.9235 43.6031 16.733C43.6031 17.5425 43.8006 18.1676 44.1957 18.6082C44.601 19.0386 45.1074 19.2538 45.7153 19.2538Z" fill="black"/>
<path d="M59.6152 12.4743V20.9897H57.4726V19.9138C57.199 20.2827 56.8394 20.5747 56.3937 20.7899C55.9581 20.9949 55.4819 21.0974 54.9653 21.0974C54.3068 21.0974 53.7243 20.959 53.2178 20.6824C52.7112 20.3955 52.311 19.9804 52.0173 19.4373C51.7336 18.884 51.5918 18.2282 51.5918 17.4698V12.4743H53.7192V17.1624C53.7192 17.8387 53.8864 18.3613 54.2207 18.7302C54.555 19.0889 55.0109 19.2682 55.5883 19.2682C56.1759 19.2682 56.6369 19.0889 56.9711 18.7302C57.3054 18.3613 57.4726 17.8387 57.4726 17.1624V12.4743H59.6152Z" fill="black"/>
<path d="M63.8404 13.7961C64.1139 13.3453 64.4685 12.9917 64.9041 12.7355C65.3498 12.4794 65.8564 12.3513 66.4236 12.3513V14.6108H65.8614C65.1928 14.6108 64.6863 14.7696 64.3418 15.0872C64.0075 15.4049 63.8404 15.9583 63.8404 16.7473V20.9896H61.7129V12.4742H63.8404V13.7961Z" fill="black"/>
<path d="M71.1551 12.3369C71.7831 12.3369 72.3353 12.4651 72.8114 12.7212C73.2876 12.9671 73.6624 13.2899 73.9359 13.6896V12.4753H76.0786V21.0522C76.0786 21.8412 75.9215 22.5432 75.6075 23.158C75.2934 23.7831 74.8224 24.275 74.1943 24.6336C73.5662 25.0025 72.8064 25.1869 71.9149 25.1869C70.7194 25.1869 69.7368 24.9051 68.9669 24.3415C68.2071 23.778 67.7766 23.0094 67.6752 22.0359H69.7874C69.8989 22.4254 70.137 22.7327 70.5016 22.9582C70.8765 23.1938 71.3273 23.3117 71.8541 23.3117C72.4721 23.3117 72.9735 23.1222 73.3585 22.7429C73.7434 22.374 73.9359 21.8105 73.9359 21.0522V19.7303C73.6624 20.13 73.2825 20.463 72.7962 20.7294C72.3201 20.9959 71.7731 21.129 71.1551 21.129C70.4459 21.129 69.7976 20.9446 69.21 20.5757C68.6225 20.2068 68.1564 19.6893 67.812 19.0233C67.4777 18.3469 67.3105 17.5732 67.3105 16.7022C67.3105 15.8415 67.4777 15.078 67.812 14.412C68.1564 13.7459 68.6173 13.2335 69.1948 12.8749C69.7824 12.5163 70.4358 12.3369 71.1551 12.3369ZM73.9359 16.733C73.9359 16.2104 73.8346 15.7646 73.632 15.3957C73.4294 15.0166 73.1559 14.7297 72.8114 14.5349C72.467 14.33 72.0972 14.2276 71.7021 14.2276C71.3071 14.2276 70.9424 14.3249 70.608 14.5196C70.2737 14.7143 70.0002 15.0012 69.7874 15.3804C69.5849 15.7493 69.4835 16.1899 69.4835 16.7022C69.4835 17.2146 69.5849 17.6655 69.7874 18.0549C70.0002 18.434 70.2737 18.726 70.608 18.931C70.9525 19.1359 71.3171 19.2384 71.7021 19.2384C72.0972 19.2384 72.467 19.1411 72.8114 18.9464C73.1559 18.7415 73.4294 18.4545 73.632 18.0856C73.8346 17.7065 73.9359 17.2556 73.9359 16.733Z" fill="black"/>
<path d="M80.2835 9.61545V20.9898H78.1562V9.61545H80.2835Z" fill="black"/>
<path d="M81.8379 16.7022C81.8379 15.8415 82.0052 15.078 82.3392 14.412C82.6841 13.7459 83.1445 13.2335 83.722 12.8749C84.3097 12.5163 84.9635 12.3369 85.6824 12.3369C86.311 12.3369 86.8578 12.4651 87.3237 12.7212C87.7999 12.9774 88.1794 13.3002 88.463 13.6896V12.4753H90.6057V20.9907H88.463V19.7456C88.1896 20.1453 87.8101 20.4783 87.3237 20.7448C86.8476 21.001 86.2952 21.129 85.6675 21.129C84.958 21.129 84.3097 20.9446 83.722 20.5757C83.1445 20.2068 82.6841 19.6893 82.3392 19.0233C82.0052 18.3469 81.8379 17.5732 81.8379 16.7022ZM88.463 16.733C88.463 16.2104 88.3625 15.7646 88.1598 15.3957C87.957 15.0166 87.6836 14.7297 87.3387 14.5349C86.9945 14.33 86.6245 14.2276 86.2293 14.2276C85.8348 14.2276 85.4695 14.3249 85.1355 14.5196C84.8016 14.7143 84.5274 15.0012 84.3152 15.3804C84.1125 15.7493 84.0112 16.1899 84.0112 16.7022C84.0112 17.2146 84.1125 17.6655 84.3152 18.0549C84.5274 18.434 84.8016 18.726 85.1355 18.931C85.4797 19.1359 85.845 19.2384 86.2293 19.2384C86.6245 19.2384 86.9945 19.1411 87.3387 18.9464C87.6836 18.7415 87.957 18.4545 88.1598 18.0856C88.3625 17.7065 88.463 17.2556 88.463 16.733Z" fill="black"/>
<path d="M95.9057 21.129C95.2166 21.129 94.599 21.0061 94.0522 20.7601C93.5045 20.504 93.0692 20.1606 92.7447 19.7303C92.4312 19.2999 92.2584 18.8234 92.2285 18.3008H94.3712C94.4112 18.6287 94.5684 18.9003 94.8418 19.1155C95.1254 19.3306 95.4751 19.4383 95.8907 19.4383C96.2954 19.4383 96.6097 19.3563 96.8328 19.1923C97.0654 19.0284 97.1824 18.8183 97.1824 18.5621C97.1824 18.2855 97.0402 18.0805 96.7566 17.9472C96.4832 17.8038 96.0424 17.6501 95.435 17.4861C94.8064 17.3324 94.2902 17.1736 93.8848 17.0097C93.4896 16.8457 93.1454 16.5946 92.8516 16.2565C92.5679 15.9183 92.4257 15.4624 92.4257 14.8885C92.4257 14.4171 92.5577 13.9868 92.8209 13.5973C93.0944 13.208 93.4794 12.9005 93.9759 12.6751C94.4827 12.4496 95.0752 12.3369 95.754 12.3369C96.7566 12.3369 97.5572 12.5931 98.1544 13.1054C98.7523 13.6076 99.0815 14.289 99.1428 15.1498H97.1062C97.0756 14.8116 96.9342 14.5452 96.6804 14.3505C96.4376 14.1456 96.1084 14.0431 95.6927 14.0431C95.3077 14.0431 95.0092 14.1148 94.7962 14.2582C94.5935 14.4018 94.4922 14.6016 94.4922 14.8577C94.4922 15.1447 94.6344 15.3649 94.918 15.5187C95.2017 15.6622 95.6424 15.8107 96.2404 15.9644C96.8477 16.1182 97.349 16.277 97.7442 16.441C98.1394 16.6049 98.4789 16.8611 98.7625 17.2094C99.0564 17.5477 99.208 17.9986 99.2182 18.5621C99.2182 19.0539 99.0815 19.4946 98.8081 19.884C98.5449 20.2734 98.1599 20.5809 97.6531 20.8062C97.1565 21.0214 96.5743 21.129 95.9057 21.129Z" fill="black"/>
<path d="M104.185 21.129C103.496 21.129 102.878 21.0061 102.331 20.7601C101.784 20.504 101.349 20.1606 101.024 19.7303C100.71 19.2999 100.538 18.8234 100.508 18.3008H102.65C102.691 18.6287 102.848 18.9003 103.121 19.1155C103.405 19.3306 103.754 19.4383 104.17 19.4383C104.575 19.4383 104.889 19.3563 105.112 19.1923C105.345 19.0284 105.462 18.8183 105.462 18.5621C105.462 18.2855 105.32 18.0805 105.036 17.9472C104.762 17.8038 104.322 17.6501 103.714 17.4861C103.086 17.3324 102.569 17.1736 102.164 17.0097C101.769 16.8457 101.424 16.5946 101.131 16.2565C100.847 15.9183 100.705 15.4624 100.705 14.8885C100.705 14.4171 100.837 13.9868 101.1 13.5973C101.374 13.208 101.759 12.9005 102.255 12.6751C102.761 12.4496 103.354 12.3369 104.033 12.3369C105.036 12.3369 105.837 12.5931 106.434 13.1054C107.032 13.6076 107.361 14.289 107.421 15.1498H105.386C105.355 14.8116 105.213 14.5452 104.96 14.3505C104.717 14.1456 104.388 14.0431 103.972 14.0431C103.587 14.0431 103.288 14.1148 103.076 14.2582C102.873 14.4018 102.771 14.6016 102.771 14.8577C102.771 15.1447 102.914 15.3649 103.197 15.5187C103.481 15.6622 103.922 15.8107 104.519 15.9644C105.127 16.1182 105.628 16.277 106.024 16.441C106.419 16.6049 106.758 16.8611 107.042 17.2094C107.336 17.5477 107.487 17.9986 107.498 18.5621C107.498 19.0539 107.361 19.4946 107.087 19.884C106.824 20.2734 106.439 20.5809 105.932 20.8062C105.436 21.0214 104.854 21.129 104.185 21.129Z" fill="black"/>
</g>
</svg>
