<svg width="16" height="11" viewBox="0 0 16 11" fill="none" xmlns="http://www.w3.org/2000/svg">
<path d="M15.0346 3.0493C15.0346 3.0493 14.8943 2.05594 14.4626 1.61977C13.9159 1.04571 13.3046 1.04289 13.0242 1.00912C11.0167 0.862793 8.0026 0.862793 8.0026 0.862793H7.997C7.997 0.862793 4.98289 0.862793 2.97535 1.00912C2.69497 1.04289 2.08374 1.04571 1.537 1.61977C1.10521 2.05594 0.96782 3.0493 0.96782 3.0493C0.96782 3.0493 0.822021 4.21712 0.822021 5.38213V6.47397C0.822021 7.63899 0.965016 8.80681 0.965016 8.80681C0.965016 8.80681 1.10521 9.80014 1.53419 10.2363C2.08094 10.8104 2.79871 10.7907 3.11835 10.8526C4.26791 10.9623 7.9998 10.9961 7.9998 10.9961C7.9998 10.9961 11.0167 10.9905 13.0242 10.847C13.3046 10.8132 13.9159 10.8104 14.4626 10.2363C14.8943 9.80014 15.0346 8.80681 15.0346 8.80681C15.0346 8.80681 15.1776 7.6418 15.1776 6.47397V5.38213C15.1776 4.21712 15.0346 3.0493 15.0346 3.0493ZM6.51658 7.79938V3.74999L10.3942 5.78172L6.51658 7.79938Z" fill="white"/>
</svg>
