<svg width="17" height="16" viewBox="0 0 17 16" fill="none" xmlns="http://www.w3.org/2000/svg">
<path d="M12.8181 3.07108C12.6349 3.07108 12.4558 3.1254 12.3035 3.22718C12.1512 3.32896 12.0324 3.47362 11.9623 3.64286C11.8923 3.81212 11.8739 3.99836 11.9097 4.17803C11.9454 4.3577 12.0336 4.52275 12.1631 4.65229C12.2927 4.78182 12.4577 4.87004 12.6374 4.90578C12.8171 4.94152 13.0034 4.92318 13.1725 4.85307C13.3418 4.78296 13.4864 4.66425 13.5882 4.51192C13.69 4.35961 13.7444 4.18052 13.7444 3.99733C13.7444 3.75167 13.6468 3.51608 13.4731 3.34237C13.2993 3.16866 13.0638 3.07108 12.8181 3.07108ZM16.3687 4.93902C16.3537 4.29859 16.2338 3.66496 16.0137 3.06336C15.8174 2.54862 15.5119 2.08252 15.1183 1.69714C14.7361 1.3015 14.2689 0.997956 13.7521 0.809484C13.1521 0.582678 12.5177 0.459987 11.8764 0.446703C11.0582 0.400391 10.7958 0.400391 8.69629 0.400391C6.59679 0.400391 6.33435 0.400391 5.51616 0.446703C4.87485 0.459987 4.24052 0.582678 3.64051 0.809484C3.12465 0.99987 2.65786 1.30314 2.27429 1.69714C1.87865 2.07935 1.5751 2.54654 1.38663 3.06336C1.15983 3.66337 1.03714 4.2977 1.02385 4.93902C0.977539 5.7572 0.977539 6.01964 0.977539 8.11914C0.977539 10.2186 0.977539 10.4811 1.02385 11.2993C1.03714 11.9405 1.15983 12.5749 1.38663 13.1749C1.5751 13.6918 1.87865 14.1589 2.27429 14.5411C2.65786 14.9351 3.12465 15.2384 3.64051 15.4288C4.24052 15.6556 4.87485 15.7783 5.51616 15.7916C6.33435 15.8379 6.59679 15.8379 8.69629 15.8379C10.7958 15.8379 11.0582 15.8379 11.8764 15.7916C12.5177 15.7783 13.1521 15.6556 13.7521 15.4288C14.2689 15.2404 14.7361 14.9368 15.1183 14.5411C15.5137 14.1572 15.8195 13.6906 16.0137 13.1749C16.2338 12.5733 16.3537 11.9397 16.3687 11.2993C16.3687 10.4811 16.415 10.2186 16.415 8.11914C16.415 6.01964 16.415 5.7572 16.3687 4.93902ZM14.9794 11.2066C14.9737 11.6966 14.885 12.1821 14.7169 12.6423C14.5936 12.9782 14.3957 13.2817 14.138 13.53C13.8876 13.7851 13.5847 13.9826 13.2504 14.1089C12.7901 14.277 12.3047 14.3657 11.8147 14.3713C11.0428 14.4099 10.7572 14.4176 8.72716 14.4176C6.69713 14.4176 6.41154 14.4176 5.63966 14.3713C5.13092 14.3809 4.62434 14.3025 4.14223 14.1398C3.82251 14.0071 3.5335 13.81 3.29316 13.5609C3.03697 13.3129 2.84149 13.0091 2.72198 12.6732C2.53353 12.2064 2.429 11.7099 2.41323 11.2066C2.41323 10.4348 2.36691 10.1492 2.36691 8.11914C2.36691 6.08911 2.36691 5.80352 2.41323 5.03164C2.41668 4.53074 2.50813 4.03434 2.68338 3.56508C2.81927 3.23927 3.02784 2.94885 3.29316 2.71602C3.52767 2.45062 3.81749 2.23984 4.14223 2.09852C4.61272 1.92873 5.10861 1.84 5.60879 1.83608C6.38066 1.83608 6.66626 1.78977 8.69629 1.78977C10.7263 1.78977 11.0119 1.78977 11.7838 1.83608C12.2738 1.8417 12.7592 1.93043 13.2195 2.09852C13.5702 2.2287 13.885 2.44034 14.138 2.71602C14.391 2.95312 14.5886 3.243 14.7169 3.56508C14.8885 4.0351 14.9773 4.53129 14.9794 5.03164C15.0179 5.80352 15.0257 6.08911 15.0257 8.11914C15.0257 10.1492 15.0179 10.4348 14.9794 11.2066ZM8.69629 4.15942C7.91346 4.16095 7.14865 4.39447 6.49849 4.8305C5.84834 5.26653 5.34201 5.88549 5.0435 6.60916C4.74498 7.33284 4.66766 8.12876 4.82132 8.89637C4.97498 9.66396 5.35271 10.3688 5.90679 10.9218C6.46088 11.4748 7.16644 11.8512 7.93434 12.0033C8.70224 12.1555 9.49801 12.0766 10.2211 11.7767C10.9442 11.4768 11.5622 10.9692 11.9969 10.3183C12.4317 9.66723 12.6637 8.90197 12.6637 8.11914C12.6648 7.59821 12.5628 7.08221 12.3636 6.60083C12.1646 6.11945 11.8722 5.68219 11.5035 5.31419C11.1348 4.94619 10.6969 4.65472 10.2152 4.45654C9.73341 4.25837 9.21722 4.15738 8.69629 4.15942ZM8.69629 10.6895C8.18792 10.6895 7.69098 10.5387 7.26828 10.2563C6.84559 9.97387 6.51614 9.57244 6.3216 9.10277C6.12706 8.6331 6.07615 8.11629 6.17533 7.61769C6.27452 7.11909 6.51931 6.6611 6.87878 6.30163C7.23825 5.94217 7.69624 5.69737 8.19484 5.59819C8.69344 5.49901 9.21025 5.54991 9.67992 5.74445C10.1496 5.93899 10.551 6.26844 10.8335 6.69113C11.1159 7.11383 11.2666 7.61077 11.2666 8.11914C11.2666 8.45669 11.2001 8.79092 11.071 9.10277C10.9418 9.41462 10.7525 9.69798 10.5138 9.93665C10.2751 10.1753 9.99176 10.3647 9.67992 10.4938C9.36807 10.623 9.03384 10.6895 8.69629 10.6895Z" fill="white"/>
</svg>
