<svg width="110" height="31" viewBox="0 0 110 31" fill="none" xmlns="http://www.w3.org/2000/svg">
<g style="mix-blend-mode:luminosity" opacity="0.5">
<path d="M32.038 15.6372C32.038 21.6613 27.0684 26.5519 20.9292 26.5519C14.79 26.5519 9.82031 21.6613 9.82031 15.6372C9.82031 9.61315 14.79 4.72266 20.9292 4.72266C27.0684 4.72266 32.038 9.61315 32.038 15.6372Z" stroke="#6927DA" stroke-width="2"/>
<path d="M25.2272 19.8634C22.951 22.1006 20.3841 23.5485 18.1206 24.1206C15.8274 24.7002 14.0773 24.3427 13.0743 23.3569C12.0713 22.3711 11.7076 20.651 12.2973 18.397C12.8794 16.1723 14.3525 13.6492 16.6287 11.412C18.9048 9.17483 21.4718 7.72689 23.7353 7.15481C26.0285 6.57523 27.7787 6.93269 28.7817 7.91848C29.7845 8.90428 30.1483 10.6245 29.5586 12.8784C28.9765 15.1031 27.5035 17.6261 25.2272 19.8634Z" stroke="#6927DA" stroke-width="2"/>
<path d="M25.2272 11.412C27.5034 13.6492 28.9765 16.1723 29.5586 18.397C30.1483 20.6509 29.7845 22.3712 28.7816 23.357C27.7786 24.3427 26.0284 24.7002 23.7353 24.1206C21.4718 23.5485 18.9048 22.1006 16.6286 19.8633C14.3525 17.6262 12.8794 15.1031 12.2973 12.8784C11.7076 10.6245 12.0713 8.90422 13.0742 7.9185C14.0772 6.93269 15.8274 6.57523 18.1205 7.15481C20.384 7.72688 22.951 9.17478 25.2272 11.412Z" stroke="#6927DA" stroke-width="2"/>
<path d="M43.7459 21.1219C46.3765 21.1219 48.1526 19.7715 48.1526 17.614C48.1526 13.0522 41.9865 14.9955 41.9865 12.5911C41.9865 11.9158 42.6065 11.4547 43.5951 11.4547C44.7177 11.4547 45.4214 12.0476 45.5052 12.9534H47.9013C47.8343 10.763 46.1252 9.33026 43.5951 9.33026C41.2158 9.33026 39.5402 10.6807 39.5402 12.5911C39.5402 17.1199 45.6225 15.3908 45.6225 17.6469C45.6225 18.5198 44.8685 18.9809 43.7459 18.9809C42.5059 18.9809 41.7184 18.2398 41.6179 17.0706H39.2051C39.3056 19.5244 41.0818 21.1219 43.7459 21.1219Z" fill="black"/>
<path d="M48.7227 24.3501H51.0517V20.2493C51.5041 20.8093 52.3251 21.1222 53.2802 21.1222C55.7097 21.1222 57.3518 19.4259 57.3518 16.8403C57.3518 14.2547 55.8437 12.5585 53.4813 12.5585C52.3921 12.5585 51.5544 12.9537 51.0517 13.596V12.6902H48.7227V24.3501ZM52.9953 19.146C51.7386 19.146 50.9176 18.2237 50.9176 16.8403C50.9176 15.4405 51.7386 14.5182 52.9953 14.5182C54.2185 14.5182 55.0562 15.4405 55.0562 16.8403C55.0562 18.2237 54.2185 19.146 52.9953 19.146Z" fill="black"/>
<path d="M57.9121 20.99H60.2412V16.4446C60.2412 15.3741 60.9616 14.6001 61.9838 14.6001C62.9556 14.6001 63.6258 15.3248 63.6258 16.3293V20.99H65.9548V15.8188C65.9548 13.9085 64.7149 12.558 62.8216 12.558C61.6487 12.558 60.7271 13.0356 60.2412 13.8426V9.08307H57.9121V20.99Z" fill="black"/>
<path d="M72.4749 18.1743C72.2905 18.8825 71.6706 19.2448 70.7323 19.2448C69.5594 19.2448 68.8054 18.5202 68.6378 17.3508H74.7034C74.7201 17.1697 74.7369 16.9227 74.7369 16.6098C74.7369 14.7158 73.5472 12.5585 70.5647 12.5585C67.6995 12.5585 66.3926 14.7158 66.3926 16.8238C66.3926 18.9154 67.867 21.1222 70.7323 21.1222C72.81 21.1222 74.4185 19.9694 74.7536 18.1743H72.4749ZM70.5647 14.2383C71.6873 14.2383 72.3408 14.9793 72.4078 15.9016H68.6713C68.8724 14.7488 69.5091 14.2383 70.5647 14.2383Z" fill="black"/>
<path d="M80.84 14.601V12.6907H79.6387C78.6165 12.6907 77.9799 13.0365 77.5275 14.074V12.6907H75.1816V20.9909H77.5275V16.956C77.5275 15.5397 78.0469 14.601 79.2026 14.601H80.84Z" fill="black"/>
<path d="M88.8852 12.6907H86.539V17.236C86.539 18.29 85.8185 19.0805 84.7963 19.0805C83.8417 19.0805 83.1714 18.3559 83.1714 17.3513V12.6907H80.8418V17.8619C80.8418 19.7557 82.0817 21.1227 83.9752 21.1227C85.1318 21.1227 86.0699 20.6286 86.539 19.8381V20.9909H88.8852V12.6907Z" fill="black"/>
<path d="M89.8906 20.99H92.2195V9.08307H89.8906V20.99Z" fill="black"/>
<path d="M98.8693 18.1743C98.6847 18.8825 98.0647 19.2448 97.1266 19.2448C95.9535 19.2448 95.2 18.5202 95.0327 17.3508H101.098C101.115 17.1697 101.131 16.9227 101.131 16.6098C101.131 14.7158 99.9418 12.5585 96.9592 12.5585C94.0938 12.5585 92.7871 14.7158 92.7871 16.8238C92.7871 18.9154 94.2619 21.1222 97.1266 21.1222C99.2048 21.1222 100.813 19.9694 101.148 18.1743H98.8693ZM96.9592 14.2383C98.082 14.2383 98.735 14.9793 98.8025 15.9016H95.0657C95.2668 14.7488 95.9032 14.2383 96.9592 14.2383Z" fill="black"/>
</g>
</svg>
