<svg width="110" height="31" viewBox="0 0 110 31" fill="none" xmlns="http://www.w3.org/2000/svg">
<g style="mix-blend-mode:luminosity" opacity="0.5">
<path d="M39.6963 13.1453C39.6963 11.5872 38.1928 9.95318 35.5795 9.95318C32.6489 9.95318 29.4312 12.0984 28.9385 16.3802C28.4351 20.7039 31.1297 22.6251 33.8458 22.6251C36.5619 22.6251 37.9842 21.5686 39.4387 20.1595C38.1879 18.5917 36.5727 19.3162 36.2632 19.4759C35.7508 19.7597 35.1706 19.9001 34.5843 19.882C33.5363 19.882 32.4667 19.4126 32.4667 17.4592C39.1821 16.797 39.6953 14.6936 39.6953 13.1453H39.6963ZM36.368 13.4014C36.3249 13.8815 36.1329 14.7033 32.7321 15.1639C33.4471 12.6223 34.8184 12.4315 35.4483 12.4315C35.5759 12.4257 35.7033 12.4473 35.8218 12.4948C35.9403 12.5423 36.0472 12.6146 36.1351 12.7068C36.223 12.799 36.2899 12.9089 36.3313 13.0291C36.3726 13.1493 36.3875 13.2769 36.3749 13.4033L36.368 13.4014ZM24.9941 13.8182L23.4328 18.7183L22.3309 10.2103C19.8723 10.2103 18.55 11.9611 17.8605 13.8075L15.9563 18.729L15.6889 13.86C15.544 11.5969 13.4655 10.22 11.7856 10.22L13.8171 22.5287C16.3932 22.519 17.7841 20.7779 18.5118 18.9315L20.1221 14.7472C20.1368 14.9176 21.2348 22.5297 21.2348 22.5297C23.8226 22.5297 25.2135 20.8967 25.9589 19.1136L29.583 10.221C27.0315 10.221 25.6866 11.9611 24.9922 13.8182H24.9941ZM49.1935 9.92299C47.5999 9.92299 46.3823 10.7877 45.3539 12.0575V12.0478L46.2726 4.6499C44.155 4.6499 42.433 6.48648 42.102 9.21894L40.5093 22.4333C41.7288 22.4333 43.0227 22.0808 43.7181 21.1839C44.3391 21.9844 45.2687 22.6251 46.6488 22.6251C50.22 22.6251 52.6697 18.4836 52.6697 14.5972C52.6482 11.0526 50.9262 9.93273 49.2043 9.93273L49.1935 9.92299ZM48.8605 16.275C48.4883 18.4417 47.2776 19.9151 46.113 19.9151C44.9484 19.9151 44.4341 19.3922 44.4341 19.3922C44.6594 17.4933 44.7985 16.3286 45.2256 15.3246C45.6526 14.3206 46.6693 12.7197 47.7282 12.7197C48.7664 12.7197 49.2366 14.0967 48.8614 16.2741L48.8605 16.275ZM61.5763 10.2112H59.0844L59.0942 10.0827C59.2656 8.46035 59.6506 7.60634 60.92 7.46708C61.7868 7.38139 62.1718 6.93345 62.2678 6.44265L62.5783 4.72391C57.5829 4.69178 56.002 6.84678 55.5994 10.1363L55.5896 10.2112H55.5357C54.7227 10.2112 53.8255 11.1295 53.6747 12.2932L53.6208 12.7197H55.2899L53.8892 24.2689L53.4602 26.3402C53.514 26.3402 53.5777 26.3499 53.6306 26.3499C55.9716 26.2642 57.4702 24.4179 57.8013 21.738L58.8944 12.7178H59.678C60.4479 12.7178 61.3471 11.9485 61.5038 10.6679L61.5763 10.2112ZM74.5369 9.997C71.6601 9.997 68.944 12.1101 68.1114 15.4308C67.2789 18.7514 68.5405 22.6787 72.7738 22.6787C77.0072 22.6787 79.4314 18.5888 79.4314 15.1844C79.4354 11.8005 77.1375 9.99602 74.5379 9.99602L74.5369 9.997ZM75.7025 16.167C75.5536 17.6724 74.8895 19.957 73.0716 19.957C71.2537 19.957 71.4995 17.2888 71.6758 16.018C71.8688 14.6624 72.6279 12.7304 74.2636 12.7304C75.7348 12.7304 75.8729 14.4706 75.7035 16.1679L75.7025 16.167ZM93.6468 13.8075L92.0855 18.7076C92.0434 18.3229 90.9846 10.1995 90.9846 10.1995C88.526 10.1995 87.2096 11.9504 86.52 13.7967L84.6159 18.7183C84.6061 18.3658 84.3485 13.8493 84.3485 13.8493C84.1937 11.5862 82.1172 10.2093 80.4305 10.2093L82.4512 22.518C85.0273 22.5083 86.4182 20.7671 87.1459 18.9208L88.7503 14.7364C88.7601 14.9069 89.8631 22.519 89.8631 22.519C92.4509 22.519 93.8359 20.8859 94.5872 19.1029L98.2142 10.2103C95.6695 10.2103 94.3217 11.9504 93.637 13.8075H93.6468ZM63.929 4.72196L61.8329 21.5978L61.4039 23.6798C61.4568 23.6798 61.5214 23.6895 61.5743 23.6895C63.8291 23.6574 65.4335 21.6835 65.7342 19.1954L66.9419 9.51302C67.3082 6.55561 65.5442 4.72002 63.929 4.72002V4.72196Z" fill="black"/>
</g>
</svg>
