<svg width="110" height="31" viewBox="0 0 110 31" fill="none" xmlns="http://www.w3.org/2000/svg">
<g style="mix-blend-mode:luminosity" opacity="0.5">
<path d="M15.755 13.149C18.833 11.7254 21.2419 9.30969 22.6248 6.2901C21.7326 5.38422 20.5727 4.73717 19.3237 4.34893L18.6546 4.13324C18.61 4.21951 18.5654 4.34893 18.5654 4.43521C17.4947 7.36854 15.309 9.74105 12.3648 11.0783C10.3128 12.0274 8.79618 13.7528 8.08244 15.8234L7.85938 16.4705C7.94855 16.5136 8.08244 16.5568 8.17162 16.5568C9.01917 16.8587 9.86672 17.2469 10.6697 17.7215C11.7849 15.7803 13.5692 14.1411 15.755 13.149Z" fill="#087443"/>
<path d="M28.6926 13.3216C27.0421 15.7373 24.7671 17.6784 21.9568 18.9726C19.6817 20.0078 17.9421 21.949 17.1391 24.2785L16.916 25.0118C17.7636 25.7451 18.7896 26.3059 19.9048 26.651L20.5739 26.8667C20.6185 26.7804 20.6632 26.651 20.6632 26.5647C21.7338 23.6314 23.9196 21.2588 26.8637 19.9216C28.9157 18.9726 30.477 17.247 31.1461 15.1765L31.3691 14.5294C30.4323 14.2706 29.5402 13.8392 28.6926 13.3216Z" fill="#16B364"/>
<path d="M15.129 22.7685C16.2441 20.1802 18.2961 18.0665 20.928 16.8586C23.3368 15.7371 25.3443 14.0116 26.7271 11.8979C25.7011 10.9488 24.8536 9.87039 24.229 8.57629C22.5786 11.5096 19.9913 13.8822 16.8241 15.3489C14.9952 16.1684 13.523 17.5919 12.6309 19.3175C13.6123 20.2234 14.4152 21.3449 15.0397 22.5959C15.0397 22.5959 15.0843 22.6821 15.129 22.7685Z" fill="#099250"/>
<path d="M36.6836 20.6666H44.201V18.6516H39.1039V9.81659H36.6836V20.6666Z" fill="black"/>
<path d="M52.055 12.8547H49.811V17.1327C49.811 18.1247 49.1218 18.8687 48.1441 18.8687C47.2304 18.8687 46.5893 18.1867 46.5893 17.2412V12.8547H44.3613V17.7217C44.3613 19.5042 45.5474 20.7907 47.3587 20.7907C48.4646 20.7907 49.3622 20.3257 49.811 19.5817V20.6667H52.055V12.8547Z" fill="black"/>
<path d="M52.8887 20.6666H55.1327V16.2336C55.1327 15.2261 55.7257 14.5596 56.6554 14.5596C57.5209 14.5596 58.0659 15.2261 58.0659 16.2336V20.6666H60.3099V16.2336C60.3099 15.2261 60.903 14.5596 61.8326 14.5596C62.6982 14.5596 63.2592 15.2261 63.2592 16.2336V20.6666H65.4871V15.5516C65.4871 13.9861 64.3491 12.7306 62.586 12.7306C61.2876 12.7306 60.2778 13.3971 59.8932 14.1566C59.5085 13.2266 58.691 12.7306 57.4248 12.7306C56.3348 12.7306 55.5654 13.2421 55.1327 13.9551V12.8546H52.8887V20.6666Z" fill="black"/>
<path d="M66.252 9.46008V11.7386H68.6242V9.46008H66.252ZM66.3161 20.6666H68.5601V12.8546H66.3161V20.6666Z" fill="black"/>
<path d="M69.3984 20.6666H71.6424V16.3886C71.6424 15.3811 72.3317 14.6526 73.3094 14.6526C74.2391 14.6526 74.8642 15.3346 74.8642 16.2801V20.6666H77.1082V15.7996C77.1082 14.0016 75.9221 12.7306 74.0948 12.7306C72.9888 12.7306 72.0912 13.1801 71.6424 13.9396V12.8546H69.3984V20.6666Z" fill="black"/>
<path d="M81.7848 20.7906C84.2692 20.7906 86.0488 19.0856 86.0488 16.7606C86.0488 14.4356 84.2692 12.7306 81.7848 12.7306C79.3003 12.7306 77.5215 14.4356 77.5215 16.7606C77.5215 19.0856 79.3003 20.7906 81.7848 20.7906ZM81.7848 18.9306C80.5826 18.9306 79.7655 18.0471 79.7655 16.7606C79.7655 15.4586 80.5826 14.5751 81.7848 14.5751C82.9869 14.5751 83.8048 15.4586 83.8048 16.7606C83.8048 18.0471 82.9869 18.9306 81.7848 18.9306Z" fill="black"/>
<path d="M94.1781 12.8547H91.9341V17.1327C91.9341 18.1247 91.245 18.8687 90.2676 18.8687C89.3538 18.8687 88.7127 18.1867 88.7127 17.2412V12.8547H86.4844V17.7217C86.4844 19.5042 87.6708 20.7907 89.4819 20.7907C90.5882 20.7907 91.4854 20.3257 91.9341 19.5817V20.6667H94.1781V12.8547Z" fill="black"/>
<path d="M97.9607 20.7906C99.8519 20.7906 101.102 19.8141 101.102 18.3261C101.102 14.7921 96.6784 16.6056 96.6784 15.0091C96.6784 14.5131 97.1114 14.2496 97.736 14.2496C98.3449 14.2496 98.9704 14.6061 99.0662 15.2726H101.006C100.926 13.7381 99.6115 12.7306 97.6724 12.7306C96.0208 12.7306 94.7872 13.7071 94.7872 15.0866C94.7872 18.3726 99.1306 16.8071 99.1306 18.4036C99.1306 18.8376 98.6498 19.1631 97.9607 19.1631C97.1271 19.1631 96.5661 18.7291 96.4859 18.0316H94.5625C94.6426 19.7211 95.9894 20.7906 97.9607 20.7906Z" fill="black"/>
</g>
</svg>
