<svg width="110" height="31" viewBox="0 0 110 31" fill="none" xmlns="http://www.w3.org/2000/svg">
<g style="mix-blend-mode:luminosity" opacity="0.5">
<path d="M11.0945 19.0521C15.1607 19.0521 18.457 15.8715 18.457 11.9479C18.457 8.02443 15.1607 4.84375 11.0945 4.84375H0.787109V19.0521H11.0945Z" fill="#F38744"/>
<path d="M0.787109 4.84375L18.457 26.1562H6.67706L0.787109 19.0521V4.84375Z" fill="#2E90FA"/>
<path d="M12.4651 18.9292C12.021 19.0099 11.5629 19.0521 11.0945 19.0521H0.787109V4.84375L12.4651 18.9292Z" fill="#53B1FD"/>
<path d="M30.5761 20.4794C29.5454 20.4794 28.6599 20.2804 27.9196 19.8826C27.1887 19.4757 26.6265 18.9061 26.233 18.1737C25.8394 17.4323 25.6426 16.5598 25.6426 15.5562C25.6426 14.5525 25.8394 13.6845 26.233 12.9522C26.6265 12.2198 27.1887 11.6547 27.9196 11.2569C28.6599 10.85 29.5454 10.6465 30.5761 10.6465C31.2414 10.6465 31.8692 10.746 32.4595 10.9449C33.0593 11.1439 33.5512 11.4287 33.9354 11.7994L33.345 13.1827C32.9234 12.8392 32.4924 12.5905 32.052 12.4368C31.6115 12.274 31.1383 12.1927 30.6323 12.1927C29.6297 12.1927 28.866 12.4866 28.3413 13.0742C27.8165 13.6529 27.5541 14.4802 27.5541 15.5562C27.5541 16.6321 27.8165 17.464 28.3413 18.0517C28.866 18.6394 29.6297 18.9332 30.6323 18.9332C31.1383 18.9332 31.6115 18.8564 32.052 18.7027C32.4924 18.5399 32.9234 18.2867 33.345 17.9432L33.9354 19.3265C33.5512 19.6882 33.0593 19.9731 32.4595 20.181C31.8692 20.3799 31.2414 20.4794 30.5761 20.4794Z" fill="black"/>
<path d="M37.9768 20.4794C37.2646 20.4794 36.6462 20.3392 36.1215 20.0589C35.5967 19.7786 35.189 19.3808 34.8986 18.8654C34.6081 18.341 34.4629 17.7262 34.4629 17.0209C34.4629 16.3157 34.6081 15.7054 34.8986 15.19C35.189 14.6746 35.5967 14.2768 36.1215 13.9965C36.6462 13.7162 37.2646 13.576 37.9768 13.576C38.6889 13.576 39.3074 13.7162 39.8321 13.9965C40.3569 14.2768 40.7645 14.6746 41.055 15.19C41.3454 15.7054 41.4906 16.3157 41.4906 17.0209C41.4906 17.7262 41.3454 18.341 41.055 18.8654C40.7645 19.3808 40.3569 19.7786 39.8321 20.0589C39.3074 20.3392 38.6889 20.4794 37.9768 20.4794ZM37.9768 19.1909C38.5015 19.1909 38.9232 19.0101 39.2418 18.6484C39.5604 18.2777 39.7196 17.7352 39.7196 17.0209C39.7196 16.2976 39.5604 15.7596 39.2418 15.407C38.9232 15.0453 38.5015 14.8645 37.9768 14.8645C37.4521 14.8645 37.0304 15.0453 36.7118 15.407C36.3932 15.7596 36.2339 16.2976 36.2339 17.0209C36.2339 17.7352 36.3932 18.2777 36.7118 18.6484C37.0304 19.0101 37.4521 19.1909 37.9768 19.1909Z" fill="black"/>
<path d="M42.9688 20.3437V13.7117H44.6836V14.7289C44.8897 14.3672 45.1755 14.0869 45.5409 13.888C45.9064 13.6801 46.3281 13.576 46.8059 13.576C47.8367 13.576 48.5113 14.01 48.8299 14.878C49.0455 14.4712 49.3547 14.1547 49.7576 13.9287C50.1605 13.6936 50.6197 13.576 51.1351 13.576C52.6812 13.576 53.4542 14.4847 53.4542 16.3021V20.3437H51.6973V16.3699C51.6973 15.8636 51.6082 15.4929 51.4302 15.2578C51.2616 15.0227 50.9711 14.9052 50.5588 14.9052C50.0997 14.9052 49.7389 15.0634 49.4765 15.3799C49.2142 15.6873 49.0829 16.1167 49.0829 16.6683V20.3437H47.326V16.3699C47.326 15.8636 47.237 15.4929 47.0589 15.2578C46.8902 15.0227 46.6045 14.9052 46.2016 14.9052C45.7424 14.9052 45.3817 15.0634 45.1192 15.3799C44.8569 15.6873 44.7257 16.1167 44.7257 16.6683V20.3437H42.9688Z" fill="black"/>
<path d="M55.2949 20.3437V13.7117H57.0097V14.7289C57.2158 14.3672 57.5016 14.0869 57.867 13.888C58.2325 13.6801 58.6542 13.576 59.132 13.576C60.1628 13.576 60.8374 14.01 61.156 14.878C61.3716 14.4712 61.6808 14.1547 62.0837 13.9287C62.4866 13.6936 62.9458 13.576 63.4612 13.576C65.0073 13.576 65.7804 14.4847 65.7804 16.3021V20.3437H64.0234V16.3699C64.0234 15.8636 63.9344 15.4929 63.7564 15.2578C63.5877 15.0227 63.2972 14.9052 62.8849 14.9052C62.4258 14.9052 62.065 15.0634 61.8026 15.3799C61.5403 15.6873 61.409 16.1167 61.409 16.6683V20.3437H59.6521V16.3699C59.6521 15.8636 59.5631 15.4929 59.385 15.2578C59.2164 15.0227 58.9306 14.9052 58.5277 14.9052C58.0685 14.9052 57.7078 15.0634 57.4454 15.3799C57.183 15.6873 57.0519 16.1167 57.0519 16.6683V20.3437H55.2949Z" fill="black"/>
<path d="M69.8574 20.4794C69.3607 20.4794 68.9156 20.3889 68.5221 20.2081C68.1379 20.0182 67.8333 19.765 67.6085 19.4486C67.393 19.1322 67.2852 18.775 67.2852 18.3772C67.2852 17.8889 67.4164 17.5047 67.6787 17.2244C67.9411 16.9351 68.3675 16.727 68.9578 16.6005C69.5481 16.4739 70.3399 16.4106 71.3332 16.4106H71.8251V16.1258C71.8251 15.6737 71.7221 15.3482 71.5159 15.1493C71.3097 14.9504 70.9631 14.8509 70.4758 14.8509C70.0916 14.8509 69.6981 14.9097 69.2951 15.0272C68.8922 15.1357 68.4846 15.3076 68.0723 15.5426L67.5663 14.3898C67.8099 14.227 68.0957 14.0869 68.4237 13.9694C68.761 13.8428 69.1124 13.7479 69.4779 13.6845C69.8526 13.6122 70.2041 13.576 70.532 13.576C71.5346 13.576 72.2796 13.8021 72.7668 14.2542C73.2541 14.6972 73.4977 15.3889 73.4977 16.3292V20.3437H71.8532V19.2859C71.694 19.6565 71.441 19.9504 71.0942 20.1674C70.7476 20.3754 70.3352 20.4794 69.8574 20.4794ZM70.2228 19.313C70.682 19.313 71.0615 19.1593 71.3613 18.8519C71.6705 18.5444 71.8251 18.1557 71.8251 17.6855V17.3871H71.3472C70.4664 17.3871 69.8526 17.4549 69.506 17.5906C69.1686 17.7171 69 17.9522 69 18.2958C69 18.5942 69.1077 18.8383 69.3232 19.0282C69.5387 19.2181 69.8386 19.313 70.2228 19.313Z" fill="black"/>
<path d="M75.2793 20.3437V13.7117H76.994V14.7424C77.2283 14.3627 77.5422 14.0734 77.9358 13.8744C78.3387 13.6755 78.7888 13.576 79.2853 13.576C80.9063 13.576 81.7163 14.4847 81.7163 16.3021V20.3437H79.9595V16.3835C79.9595 15.8681 79.8566 15.4929 79.6507 15.2578C79.4535 15.0227 79.1447 14.9052 78.7228 14.9052C78.2075 14.9052 77.7952 15.0634 77.486 15.3799C77.1861 15.6873 77.0362 16.0987 77.0362 16.614V20.3437H75.2793Z" fill="black"/>
<path d="M86.143 20.4794C85.5435 20.4794 85.0139 20.3392 84.5542 20.0589C84.1048 19.7786 83.7536 19.3808 83.5006 18.8654C83.2476 18.341 83.1211 17.7262 83.1211 17.0209C83.1211 16.3066 83.2476 15.6963 83.5006 15.19C83.7536 14.6746 84.1048 14.2768 84.5542 13.9965C85.0139 13.7162 85.5435 13.576 86.143 13.576C86.6301 13.576 87.0701 13.68 87.4637 13.888C87.8574 14.0959 88.1528 14.3717 88.3492 14.7153V10.7822H90.1061V20.3437H88.3917V19.2452C88.2039 19.6249 87.9092 19.9278 87.5062 20.1539C87.1031 20.3709 86.649 20.4794 86.143 20.4794ZM86.6348 19.1909C87.1597 19.1909 87.5808 19.0101 87.8998 18.6484C88.218 18.2777 88.3775 17.7352 88.3775 17.0209C88.3775 16.2976 88.218 15.7596 87.8998 15.407C87.5808 15.0453 87.1597 14.8645 86.6348 14.8645C86.11 14.8645 85.688 15.0453 85.3698 15.407C85.0508 15.7596 84.8921 16.2976 84.8921 17.0209C84.8921 17.7352 85.0508 18.2777 85.3698 18.6484C85.688 19.0101 86.11 19.1909 86.6348 19.1909Z" fill="black"/>
<path d="M94.5857 19.8012V17.0481H91.8027V15.8546H94.5857V13.1827H95.879V15.8546H98.662V17.0481H95.879V19.8012H94.5857Z" fill="black"/>
<path d="M100.525 20.3437V10.7822H104.826C105.913 10.7822 106.752 11.0354 107.342 11.5417C107.932 12.039 108.228 12.7397 108.228 13.6439C108.228 14.3582 108.036 14.9503 107.652 15.4205C107.268 15.8817 106.714 16.1936 105.993 16.3564C106.471 16.501 106.865 16.8491 107.173 17.4007L108.832 20.3437H106.85L105.136 17.2922C104.967 16.9938 104.766 16.7904 104.531 16.6819C104.306 16.5734 104.016 16.5191 103.66 16.5191H102.325V20.3437H100.525ZM102.325 15.2307H104.517C105.829 15.2307 106.485 14.7153 106.485 13.6845C106.485 12.6629 105.829 12.152 104.517 12.152H102.325V15.2307Z" fill="black"/>
</g>
</svg>
